<svg xmlns="http://www.w3.org/2000/svg" width="48" height="48" viewBox="0 0 48 48">
    <g fill="none" fill-rule="evenodd">
        <g>
            <g>
                <g>
                    <g>
                        <g>
                            <g transform="translate(-271 -1530) translate(0 1472) translate(48 58) translate(223) translate(1.8 1.8)">
                                <circle cx="22.2" cy="22.2" r="22.2" fill="#63C969" stroke="#44984A" stroke-width="1.5"/>
                                <path fill="#44984A" d="M12.702 26.825c6.07 2.7 12.371 2.7 18.903 0 .485 2.614-.445 4.983-2.79 7.107-4.456 3.324-8.938 3.324-13.446 0-2.358-2.349-3.248-4.718-2.667-7.107z"/>
                                <path fill="#44984A" d="M22.2.6c11.934 0 21.1 9.29 21.58 20.94C41.428 11.933 32.66 4.8 22.2 4.8 11.741 4.8 2.972 11.934.62 21.539 1.1 9.89 10.266.6 22.2.6z" opacity=".25"/>
                            </g>
                            <g fill="#44984A" fill-rule="nonzero">
                                <path d="M3.3 6.9l-.462-.502C1.122 4.748 0 3.636 0 2.273 0 1.16.792.3 1.815.3c.561 0 1.122.287 1.485.753C3.663.587 4.224.3 4.785.3 5.808.3 6.6 1.16 6.6 2.273c0 1.363-1.122 2.475-2.838 4.125L3.3 6.9zM27.9 6.9l-.462-.502C25.722 4.748 24.6 3.636 24.6 2.273 24.6 1.16 25.392.3 26.415.3c.561 0 1.122.287 1.485.753.363-.466.924-.753 1.485-.753 1.023 0 1.815.86 1.815 1.973 0 1.363-1.122 2.475-2.838 4.125L27.9 6.9z" transform="translate(-271 -1530) translate(0 1472) translate(48 58) translate(223) translate(1.8 1.8) translate(6.6 18)"/>
                            </g>
                        </g>
                    </g>
                </g>
            </g>
        </g>
    </g>
</svg>
