<svg xmlns="http://www.w3.org/2000/svg" width="48" height="48" viewBox="0 0 48 48">
    <g fill="none" fill-rule="evenodd">
        <g>
            <g>
                <g>
                    <g transform="translate(-44 -262) translate(0 204) translate(44 58) translate(1.8 1.8)">
                        <circle cx="22.2" cy="22.2" r="22.2" fill="#FF575F" stroke="#CD3234" stroke-width="1.8"/>
                        <path stroke="#CD3234" stroke-linecap="round" stroke-width="1.8" d="M6.6 22.8c2 2.172 4 2.172 6 0M31.8 22.8c2 2.172 4 2.172 6 0"/>
                        <path fill="#CD3234" d="M12.519 26.825c6.07 2.7 12.371 2.7 18.903 0 .485 2.614-.445 4.983-2.79 7.107-4.456 3.324-8.938 3.324-13.446 0-2.358-2.349-3.247-4.718-2.667-7.107z" transform="matrix(1 0 0 -1 0 63.25)"/>
                        <path fill="#C03133" d="M22.2.6c11.934 0 21.1 9.29 21.58 20.94C41.428 11.933 32.66 4.8 22.2 4.8 11.741 4.8 2.972 11.934.62 21.539 1.1 9.89 10.266.6 22.2.6z" opacity=".249"/>
                    </g>
                </g>
            </g>
        </g>
    </g>
</svg>
