<svg xmlns="http://www.w3.org/2000/svg" width="40" height="40" viewBox="0 0 40 40">
    <g fill="none" fill-rule="evenodd">
        <g>
            <g>
                <g>
                    <g>
                        <g transform="translate(-272 -815) translate(0 761) translate(272 54) translate(1.5 1.5)">
                            <circle cx="18.5" cy="18.5" r="18.5" stroke="#A1A6A7" stroke-width="1.5"/>
                            <path fill="#A1A6A7" d="M10.585 22.354c5.058 2.25 10.31 2.25 15.752 0 .405 2.179-.37 4.153-2.325 5.923-3.713 2.77-7.447 2.77-11.204 0-1.966-1.958-2.707-3.932-2.223-5.923z"/>
                        </g>
                        <g fill="#A1A6A7" fill-rule="nonzero">
                            <path d="M2.75 5.75l-.385-.418C.935 3.957 0 3.03 0 1.894 0 .967.66.25 1.512.25c.468 0 .935.24 1.238.628C3.053.489 3.52.25 3.987.25 4.84.25 5.5.967 5.5 1.894c0 1.136-.935 2.063-2.365 3.438l-.385.418zM23.25 5.75l-.385-.418C21.435 3.957 20.5 3.03 20.5 1.894c0-.927.66-1.644 1.512-1.644.468 0 .936.24 1.238.628.302-.389.77-.628 1.238-.628C25.34.25 26 .967 26 1.894c0 1.136-.935 2.063-2.365 3.438l-.385.418z" transform="translate(-272 -815) translate(0 761) translate(272 54) translate(1.5 1.5) translate(5.5 15)"/>
                        </g>
                    </g>
                </g>
            </g>
        </g>
    </g>
</svg>
