<svg xmlns="http://www.w3.org/2000/svg" width="40" height="40" viewBox="0 0 40 40">
    <g fill="none" fill-rule="evenodd">
        <g>
            <g>
                <g>
                    <g transform="translate(-48 -815) translate(0 761) translate(48 54) translate(1.5 1)">
                        <circle cx="18.5" cy="18.5" r="18.5" stroke="#A1A6A7" stroke-width="1.5"/>
                        <path stroke="#A1A6A7" stroke-linecap="round" stroke-width="1.5" d="M5.5 19c1.667 1.81 3.333 1.81 5 0"/>
                        <path fill="#A1A6A7" d="M10.432 22.854c5.059 2.25 10.31 2.25 15.753 0 .405 2.179-.37 4.153-2.326 5.923-3.712 2.77-7.447 2.77-11.204 0-1.965-1.958-2.706-3.932-2.223-5.923z" transform="matrix(1 0 0 -1 0 53.708)"/>
                        <path stroke="#A1A6A7" stroke-linecap="round" stroke-width="1.5" d="M26.5 19c1.667 1.81 3.333 1.81 5 0"/>
                    </g>
                </g>
            </g>
        </g>
    </g>
</svg>
