<svg xmlns="http://www.w3.org/2000/svg" width="24" height="24" viewBox="0 0 24 24">
    <g fill="none" fill-rule="evenodd">
        <g fill="#121617">
            <g>
                <path d="M15.867 9.68h-.818l-.284.282c1.004 1.17 1.614 2.687 1.614 4.349 0 3.694-2.995 6.689-6.69 6.689C5.996 21 3 18.005 3 14.31c0-3.694 2.995-6.688 6.69-6.688 1.662 0 3.178.609 4.348 1.611l.284-.282v-.815L19.466 3 21 4.534 15.867 9.68zm-6.177 0c-2.559 0-4.632 2.073-4.632 4.63 0 2.558 2.073 4.632 4.632 4.632 2.557 0 4.63-2.074 4.63-4.631 0-2.558-2.073-4.631-4.63-4.631z" transform="translate(-320 -16) translate(320 16) matrix(1 0 0 -1 0 24)"/>
            </g>
        </g>
    </g>
</svg>
